<svg width="75" height="75" viewBox="0 0 75 75" fill="none" xmlns="http://www.w3.org/2000/svg">
<g clip-path="url(#clip0_65_27)">
<path d="M37.5 70.3125C28.7976 70.3125 20.4516 66.8555 14.2981 60.7019C8.14452 54.5484 4.6875 46.2024 4.6875 37.5C4.6875 28.7976 8.14452 20.4516 14.2981 14.2981C20.4516 8.14452 28.7976 4.6875 37.5 4.6875C46.2024 4.6875 54.5484 8.14452 60.7019 14.2981C66.8555 20.4516 70.3125 28.7976 70.3125 37.5C70.3125 46.2024 66.8555 54.5484 60.7019 60.7019C54.5484 66.8555 46.2024 70.3125 37.5 70.3125ZM37.5 75C47.4456 75 56.9839 71.0491 64.0165 64.0165C71.0491 56.9839 75 47.4456 75 37.5C75 27.5544 71.0491 18.0161 64.0165 10.9835C56.9839 3.95088 47.4456 0 37.5 0C27.5544 0 18.0161 3.95088 10.9835 10.9835C3.95088 18.0161 0 27.5544 0 37.5C0 47.4456 3.95088 56.9839 10.9835 64.0165C18.0161 71.0491 27.5544 75 37.5 75Z" fill="white"/>
<path d="M44.1435 16.4054C42.4142 10.5315 34.0858 10.5315 32.3565 16.4054L32.048 17.4521C31.9273 17.8622 31.7163 18.24 31.4305 18.5579C31.1448 18.8757 30.7915 19.1256 30.3966 19.2893C30.0017 19.4529 29.5752 19.5261 29.1484 19.5034C28.7216 19.4808 28.3052 19.3629 27.9298 19.1585L26.9716 18.6335C21.5901 15.7064 15.7064 21.5933 18.6367 26.9716L19.1585 27.9298C19.3629 28.3052 19.4808 28.7216 19.5034 29.1484C19.5261 29.5752 19.4529 30.0017 19.2893 30.3966C19.1256 30.7915 18.8757 31.1448 18.5579 31.4305C18.24 31.7163 17.8622 31.9273 17.4521 32.048L16.4054 32.3565C10.5315 34.0858 10.5315 42.4142 16.4054 44.1435L17.4521 44.452C17.8622 44.5727 18.24 44.7837 18.5579 45.0695C18.8757 45.3552 19.1256 45.7085 19.2893 46.1034C19.4529 46.4983 19.5261 46.9248 19.5034 47.3516C19.4808 47.7784 19.3629 48.1948 19.1585 48.5702L18.6335 49.5284C15.7064 54.91 21.5901 60.7969 26.9716 57.8633L27.9298 57.3415C28.3052 57.1371 28.7216 57.0192 29.1484 56.9966C29.5752 56.9739 30.0017 57.0471 30.3966 57.2107C30.7915 57.3744 31.1448 57.6243 31.4305 57.9422C31.7163 58.26 31.9273 58.6378 32.048 59.0479L32.3565 60.0947C34.0858 65.9685 42.4142 65.9685 44.1435 60.0947L44.452 59.0479C44.5727 58.6378 44.7837 58.26 45.0695 57.9422C45.3552 57.6243 45.7085 57.3744 46.1034 57.2107C46.4983 57.0471 46.9248 56.9739 47.3516 56.9966C47.7784 57.0192 48.1948 57.1371 48.5702 57.3415L49.5284 57.8665C54.91 60.7969 60.7969 54.9067 57.8633 49.5284L57.3415 48.5702C57.1371 48.1948 57.0192 47.7784 56.9966 47.3516C56.9739 46.9248 57.0471 46.4983 57.2107 46.1034C57.3744 45.7085 57.6243 45.3552 57.9422 45.0695C58.26 44.7837 58.6378 44.5727 59.0479 44.452L60.0947 44.1435C65.9685 42.4142 65.9685 34.0858 60.0947 32.3565L59.0479 32.048C58.6378 31.9273 58.26 31.7163 57.9422 31.4305C57.6243 31.1448 57.3744 30.7915 57.2107 30.3966C57.0471 30.0017 56.9739 29.5752 56.9966 29.1484C57.0192 28.7216 57.1371 28.3052 57.3415 27.9298L57.8665 26.9716C60.7969 21.5901 54.9067 15.7064 49.5284 18.6367L48.5702 19.1585C48.1948 19.3629 47.7784 19.4808 47.3516 19.5034C46.9248 19.5261 46.4983 19.4529 46.1034 19.2893C45.7085 19.1256 45.3552 18.8757 45.0695 18.5579C44.7837 18.24 44.5727 17.8622 44.452 17.4521L44.1435 16.4054ZM35.5034 17.334C36.3107 14.594 40.1893 14.594 40.9966 17.334L41.305 18.3808C41.5643 19.2605 42.0172 20.071 42.6305 20.753C43.2438 21.4349 44.0019 21.9709 44.8493 22.3218C45.6966 22.6726 46.6118 22.8294 47.5276 22.7805C48.4434 22.7317 49.3367 22.4786 50.142 22.0396L51.0969 21.5146C53.6039 20.1528 56.3472 22.8928 54.9821 25.4031L54.4604 26.3613C54.0221 27.1666 53.7696 28.0599 53.7213 28.9755C53.673 29.8911 53.8302 30.8059 54.1813 31.6529C54.5324 32.4999 55.0686 33.2576 55.7506 33.8705C56.4325 34.4834 57.243 34.9359 58.1225 35.195L59.166 35.5034C61.906 36.3107 61.906 40.1893 59.166 40.9966L58.1192 41.305C57.2395 41.5643 56.429 42.0172 55.7471 42.6305C55.0651 43.2438 54.5291 44.0019 54.1783 44.8493C53.8274 45.6966 53.6707 46.6118 53.7195 47.5276C53.7683 48.4434 54.0215 49.3367 54.4604 50.142L54.9854 51.0969C56.3472 53.6039 53.6072 56.3472 51.0969 54.9821L50.142 54.4604C49.3365 54.0215 48.443 53.7685 47.527 53.7198C46.611 53.6712 45.6957 53.8283 44.8483 54.1795C44.0009 54.5306 43.2428 55.067 42.6297 55.7493C42.0166 56.4316 41.564 57.2425 41.305 58.1225L40.9966 59.166C40.1893 61.906 36.3107 61.906 35.5034 59.166L35.195 58.1192C34.9356 57.24 34.4827 56.4299 33.8697 55.7483C33.2566 55.0667 32.4989 54.5309 31.6519 54.1801C30.805 53.8293 29.8903 53.6724 28.9749 53.7209C28.0594 53.7694 27.1664 54.0221 26.3613 54.4604L25.4031 54.9854C22.8961 56.3472 20.1528 53.6072 21.5179 51.0969L22.0396 50.142C22.4792 49.3366 22.7328 48.443 22.782 47.5268C22.8311 46.6106 22.6745 45.695 22.3236 44.8472C21.9727 43.9994 21.4365 43.2409 20.7542 42.6274C20.0719 42.0139 19.261 41.5609 18.3808 41.3018L17.334 40.9933C14.594 40.1861 14.594 36.3074 17.334 35.5001L18.3808 35.1917C19.2596 34.9322 20.0692 34.4794 20.7505 33.8666C21.4317 33.2538 21.9673 32.4964 22.3181 31.6499C22.6688 30.8033 22.8258 29.8891 22.7777 28.974C22.7295 28.059 22.4773 27.1663 22.0396 26.3613L21.5146 25.4031C20.1528 22.8961 22.8928 20.1528 25.4031 21.5179L26.3613 22.0396C27.1664 22.4779 28.0594 22.7306 28.9749 22.7791C29.8903 22.8276 30.805 22.6707 31.6519 22.3199C32.4989 21.9691 33.2566 21.4333 33.8697 20.7517C34.4827 20.0701 34.9356 19.26 35.195 18.3808L35.5034 17.334Z" fill="white"/>
<path d="M38.2497 27.5984C36.851 27.5984 35.4659 27.8739 34.1736 28.4092C32.8812 28.9445 31.707 29.7291 30.7179 30.7182C29.7288 31.7073 28.9442 32.8815 28.409 34.1738C27.8737 35.4661 27.5981 36.8512 27.5981 38.25C27.5981 39.6488 27.8737 41.0339 28.409 42.3262C28.9442 43.6185 29.7288 44.7927 30.7179 45.7818C31.707 46.7709 32.8812 47.5555 34.1736 48.0908C35.4659 48.6261 36.851 48.9016 38.2497 48.9016C41.0747 48.9016 43.784 47.7794 45.7816 45.7818C47.7791 43.7843 48.9014 41.075 48.9014 38.25C48.9014 35.425 47.7791 32.7157 45.7816 30.7182C43.784 28.7206 41.0747 27.5984 38.2497 27.5984ZM30.8796 38.25C30.8796 36.2953 31.6561 34.4207 33.0383 33.0385C34.4204 31.6563 36.2951 30.8798 38.2497 30.8798C40.2044 30.8798 42.0791 31.6563 43.4612 33.0385C44.8434 34.4207 45.6199 36.2953 45.6199 38.25C45.6199 40.2047 44.8434 42.0793 43.4612 43.4615C42.0791 44.8436 40.2044 45.6201 38.2497 45.6201C36.2951 45.6201 34.4204 44.8436 33.0383 43.4615C31.6561 42.0793 30.8796 40.2047 30.8796 38.25Z" fill="white"/>
</g>
<defs>
<clipPath id="clip0_65_27">
<rect width="75" height="75" fill="white"/>
</clipPath>
</defs>
</svg>
