<svg width="118" height="117" viewBox="0 0 118 117" fill="none" xmlns="http://www.w3.org/2000/svg">
<path d="M83.5833 33.4167H34.4166C20.8396 33.4167 9.83325 44.423 9.83325 58C9.83325 71.577 20.8396 82.5834 34.4166 82.5834H83.5833C97.1603 82.5834 108.167 71.577 108.167 58C108.167 44.423 97.1603 33.4167 83.5833 33.4167Z" stroke="#FFFEF9" stroke-width="2" stroke-linecap="round" stroke-linejoin="round"/>
<g clip-path="url(#clip0_29_228)">
<path d="M31.25 43.5211C31.4326 43.7438 31.5444 44.0159 31.5711 44.3026C31.5978 44.5892 31.5383 44.8774 31.4 45.1299C30.3154 47.1199 29.7492 49.351 29.7537 51.6174C29.7537 59.1568 35.9 65.2618 43.475 65.2618C44.465 65.2605 45.4231 65.1605 46.3494 64.9618C46.6327 64.9012 46.9276 64.925 47.1976 65.0303C47.4675 65.1356 47.7007 65.3178 47.8681 65.5543C48.0453 65.8004 48.1357 66.0983 48.1252 66.4014C48.1146 66.7044 48.0038 66.9954 47.81 67.2286C46.3393 69.035 44.4841 70.4904 42.3796 71.4888C40.2751 72.4872 37.9743 73.0035 35.645 72.9999C27.0012 72.9999 20 66.0361 20 57.4561C20 50.9986 23.9638 45.4599 29.6075 43.1124C29.8885 42.993 30.2008 42.9682 30.4971 43.042C30.7935 43.1157 31.0577 43.2839 31.25 43.5211Z" fill="#FFFEF9"/>
<path d="M40.2388 48.9025C40.2656 48.8213 40.3174 48.7506 40.3868 48.7006C40.4561 48.6505 40.5395 48.6235 40.625 48.6235C40.7105 48.6235 40.7939 48.6505 40.8632 48.7006C40.9326 48.7506 40.9844 48.8213 41.0113 48.9025L41.7369 51.0812C42.0613 52.0525 42.8225 52.8137 43.7938 53.1381L45.9725 53.8637C46.0537 53.8906 46.1244 53.9424 46.1744 54.0118C46.2245 54.0811 46.2515 54.1645 46.2515 54.25C46.2515 54.3355 46.2245 54.4189 46.1744 54.4882C46.1244 54.5576 46.0537 54.6094 45.9725 54.6362L43.7938 55.3619C43.3145 55.5209 42.8789 55.7897 42.5218 56.1468C42.1647 56.5039 41.896 56.9395 41.7369 57.4187L41.0113 59.5975C40.9844 59.6787 40.9326 59.7494 40.8632 59.7994C40.7939 59.8495 40.7105 59.8765 40.625 59.8765C40.5395 59.8765 40.4561 59.8495 40.3868 59.7994C40.3174 59.7494 40.2656 59.6787 40.2388 59.5975L39.5131 57.4187C39.3541 56.9395 39.0853 56.5039 38.7282 56.1468C38.3711 55.7897 37.9356 55.5209 37.4563 55.3619L35.2775 54.6362C35.1963 54.6094 35.1257 54.5576 35.0756 54.4882C35.0255 54.4189 34.9985 54.3355 34.9985 54.25C34.9985 54.1645 35.0255 54.0811 35.0756 54.0118C35.1257 53.9424 35.1963 53.8906 35.2775 53.8637L37.4563 53.1381C37.9356 52.9791 38.3711 52.7103 38.7282 52.3532C39.0853 51.9961 39.3541 51.5605 39.5131 51.0812L40.2388 48.9025ZM45.9931 43.1856C46.0116 43.1322 46.0463 43.0859 46.0924 43.0532C46.1384 43.0204 46.1935 43.0028 46.25 43.0028C46.3065 43.0028 46.3616 43.0204 46.4077 43.0532C46.4537 43.0859 46.4884 43.1322 46.5069 43.1856L46.9906 44.6369C47.2063 45.2856 47.7144 45.7937 48.3631 46.0094L49.8144 46.4931C49.8678 46.5116 49.9141 46.5463 49.9468 46.5924C49.9796 46.6384 49.9972 46.6935 49.9972 46.75C49.9972 46.8065 49.9796 46.8616 49.9468 46.9076C49.9141 46.9537 49.8678 46.9884 49.8144 47.0069L48.3631 47.4906C48.0437 47.5975 47.7535 47.7771 47.5153 48.0153C47.2771 48.2535 47.0975 48.5437 46.9906 48.8631L46.5069 50.3144C46.4884 50.3678 46.4537 50.4141 46.4077 50.4468C46.3616 50.4796 46.3065 50.4972 46.25 50.4972C46.1935 50.4972 46.1384 50.4796 46.0924 50.4468C46.0463 50.4141 46.0116 50.3678 45.9931 50.3144L45.5094 48.8631C45.4025 48.5437 45.2229 48.2535 44.9847 48.0153C44.7466 47.7771 44.4563 47.5975 44.1369 47.4906L42.6856 47.0069C42.6322 46.9884 42.586 46.9537 42.5532 46.9076C42.5204 46.8616 42.5028 46.8065 42.5028 46.75C42.5028 46.6935 42.5204 46.6384 42.5532 46.5924C42.586 46.5463 42.6322 46.5116 42.6856 46.4931L44.1369 46.0094C44.7856 45.7937 45.2938 45.2856 45.5094 44.6369L45.9931 43.1856Z" fill="#FFFEF9"/>
</g>
<defs>
<clipPath id="clip0_29_228">
<rect width="30" height="30" fill="white" transform="translate(20 43)"/>
</clipPath>
</defs>
</svg>
