<svg width="75" height="75" viewBox="0 0 75 75" fill="none" xmlns="http://www.w3.org/2000/svg">
<g clip-path="url(#clip0_29_250)">
<path d="M37.5 70.3125C28.7976 70.3125 20.4516 66.8555 14.2981 60.7019C8.14452 54.5484 4.6875 46.2024 4.6875 37.5C4.6875 28.7976 8.14452 20.4516 14.2981 14.2981C20.4516 8.14452 28.7976 4.6875 37.5 4.6875C46.2024 4.6875 54.5484 8.14452 60.7019 14.2981C66.8555 20.4516 70.3125 28.7976 70.3125 37.5C70.3125 46.2024 66.8555 54.5484 60.7019 60.7019C54.5484 66.8555 46.2024 70.3125 37.5 70.3125ZM37.5 75C47.4456 75 56.9839 71.0491 64.0165 64.0165C71.0491 56.9839 75 47.4456 75 37.5C75 27.5544 71.0491 18.0161 64.0165 10.9835C56.9839 3.95088 47.4456 0 37.5 0C27.5544 0 18.0161 3.95088 10.9835 10.9835C3.95088 18.0161 0 27.5544 0 37.5C0 47.4456 3.95088 56.9839 10.9835 64.0165C18.0161 71.0491 27.5544 75 37.5 75Z" fill="#FFFEF9"/>
<path d="M31.7578 19.4531C30.0023 19.4531 28.4766 20.4539 27.502 21.8123C26.5275 23.1708 26.0156 24.9328 26.0156 26.8359C26.0156 28.7391 26.5291 30.5011 27.502 31.8612C28.4766 33.218 30.0023 34.2188 31.7578 34.2188C33.5133 34.2188 35.0391 33.218 36.0136 31.8595C36.9881 30.5011 37.5 28.7391 37.5 26.8359C37.5 24.9328 36.9865 23.1708 36.0136 21.8107C35.0391 20.4539 33.5133 19.4531 31.7578 19.4531ZM37.5 26.8359C37.5 28.7391 38.0135 30.5011 38.9864 31.8612C39.9609 33.218 41.4867 34.2188 43.2422 34.2188C44.9977 34.2188 46.5234 33.218 47.498 31.8595C48.4709 30.5011 48.9844 28.7391 48.9844 26.8359C48.9844 24.9328 48.4709 23.1708 47.498 21.8107C46.5234 20.4539 44.9977 19.4531 43.2422 19.4531C41.4867 19.4531 39.9609 20.4539 38.9864 21.8123C38.0135 23.1708 37.5 24.9328 37.5 26.8359ZM31.7578 22.7344C32.2713 22.7344 32.8341 22.9903 33.3476 23.7089C33.8578 24.4242 34.2188 25.5677 34.2188 26.8359C34.2188 28.1041 33.8595 29.246 33.3476 29.963C32.8341 30.6816 32.2713 30.9375 31.7578 30.9375C31.2443 30.9375 30.6816 30.6816 30.168 29.963C29.6578 29.2477 29.2969 28.1041 29.2969 26.8359C29.2969 25.5677 29.6562 24.4259 30.168 23.7089C30.6816 22.9903 31.2443 22.7344 31.7578 22.7344ZM43.2422 22.7344C43.7557 22.7344 44.3184 22.9903 44.832 23.7089C45.3422 24.4242 45.7031 25.5677 45.7031 26.8359C45.7031 28.1041 45.3438 29.246 44.832 29.963C44.3184 30.6816 43.7541 30.9375 43.2422 30.9375C42.7287 30.9375 42.1659 30.6816 41.6524 29.963C41.1422 29.2477 40.7812 28.1041 40.7812 26.8359C40.7812 25.5677 41.1405 24.4259 41.6524 23.7089C42.1659 22.9903 42.7303 22.7344 43.2422 22.7344ZM23.5547 30.9375C21.7992 30.9375 20.2734 31.9383 19.2989 33.2967C18.326 34.6535 17.8125 36.4172 17.8125 38.3203C17.8125 40.2234 18.326 41.9855 19.2989 43.3455C20.2734 44.7023 21.7992 45.7031 23.5547 45.7031C25.3102 45.7031 26.8359 44.7023 27.8105 43.3439C28.785 41.9855 29.2969 40.2234 29.2969 38.3203C29.2969 36.4172 28.7834 34.6552 27.8105 33.2951C26.8359 31.9383 25.3102 30.9375 23.5547 30.9375ZM51.4453 30.9375C49.6898 30.9375 48.1641 31.9383 47.1895 33.2967C46.2166 34.6552 45.7031 36.4172 45.7031 38.3203C45.7031 40.2234 46.2166 41.9855 47.1895 43.3455C48.1641 44.7023 49.6898 45.7031 51.4453 45.7031C53.2008 45.7031 54.7266 44.7023 55.7011 43.3439C56.674 41.9855 57.1875 40.2234 57.1875 38.3203C57.1875 36.4172 56.674 34.6552 55.7011 33.2951C54.7266 31.9383 53.2008 30.9375 51.4453 30.9375ZM23.5547 34.2188C24.0682 34.2188 24.6309 34.4747 25.1445 35.1933C25.6547 35.9086 26.0156 37.0521 26.0156 38.3203C26.0156 39.5885 25.6563 40.7304 25.1445 41.4473C24.6309 42.1659 24.0682 42.4219 23.5547 42.4219C23.0412 42.4219 22.4784 42.1659 21.9649 41.4473C21.4547 40.732 21.0938 39.5885 21.0938 38.3203C21.0938 37.0521 21.453 35.9102 21.9649 35.1933C22.4784 34.4747 23.0428 34.2188 23.5547 34.2188ZM51.4453 34.2188C51.9588 34.2188 52.5216 34.4747 53.0351 35.1933C53.547 35.9102 53.9062 37.0521 53.9062 38.3203C53.9062 39.5885 53.547 40.7304 53.0351 41.4473C52.5216 42.1659 51.9572 42.4219 51.4453 42.4219C50.9318 42.4219 50.3691 42.1659 49.8555 41.4473C49.3453 40.732 48.9844 39.5885 48.9844 38.3203C48.9844 37.0521 49.3437 35.9102 49.8555 35.1933C50.3691 34.4747 50.9334 34.2188 51.4453 34.2188ZM37.5 37.5C35.3147 37.5 33.7889 38.9224 33.0391 40.166C32.2894 41.4096 31.8349 42.4465 31.3985 42.8829C31.1426 43.1405 29.561 43.736 27.9122 44.576C27.0853 44.9977 26.2535 45.562 25.5546 46.4217C24.7871 47.3819 24.3709 48.5755 24.375 49.8047C24.375 52.958 26.9639 55.5469 30.1172 55.5469C31.5396 55.5469 33.0211 55.0924 34.4747 54.6757C35.9299 54.259 37.5 53.9062 37.5 53.9062C37.5 53.9062 39.0701 54.259 40.5253 54.6757C41.9789 55.0924 43.4604 55.5469 44.8828 55.5469C48.0361 55.5469 50.625 52.958 50.625 49.8047C50.625 48.5037 50.1443 47.3109 49.4454 46.4726C48.7465 45.6326 47.9081 45.1141 47.0878 44.6777C45.4472 43.8066 43.8312 43.1142 43.6015 42.8829C43.2094 42.4924 42.768 41.4227 42.0117 40.166C41.257 38.9093 39.6984 37.5 37.5 37.5ZM37.5 40.7812C38.5828 40.7812 38.7042 41.0438 39.1915 41.8575C39.6788 42.6712 40.0512 44.0494 41.2423 45.2421C42.5941 46.594 44.3053 46.8893 45.5489 47.5488C46.1723 47.8819 46.6514 48.2346 46.9336 48.5742C47.2158 48.9138 47.3438 49.2272 47.3438 49.8047C47.3438 51.1828 46.2609 52.2656 44.8828 52.2656C44.407 52.2656 42.8763 51.8998 41.4473 51.4962C40.02 51.0926 38.8388 50.625 37.5 50.625C36.1612 50.625 34.9816 51.0926 33.5527 51.4962C32.1237 51.8998 30.5913 52.2656 30.1172 52.2656C28.7391 52.2656 27.6562 51.1828 27.6562 49.8047C27.6562 49.1452 27.7908 48.8039 28.0664 48.4709C28.342 48.1378 28.8424 47.8113 29.4511 47.498C30.675 46.8745 32.373 46.6252 33.7577 45.2421C34.962 44.0362 35.3278 42.6138 35.8085 41.8066C36.2892 40.9995 36.4041 40.7812 37.5 40.7812Z" fill="#FFFEF9"/>
</g>
<defs>
<clipPath id="clip0_29_250">
<rect width="75" height="75" fill="white"/>
</clipPath>
</defs>
</svg>
