<svg width="75" height="75" viewBox="0 0 75 75" fill="none" xmlns="http://www.w3.org/2000/svg">
<g clip-path="url(#clip0_73_23)">
<path d="M37.5 70.3125C28.7976 70.3125 20.4516 66.8555 14.2981 60.7019C8.14452 54.5484 4.6875 46.2024 4.6875 37.5C4.6875 28.7976 8.14452 20.4516 14.2981 14.2981C20.4516 8.14452 28.7976 4.6875 37.5 4.6875C46.2024 4.6875 54.5484 8.14452 60.7019 14.2981C66.8555 20.4516 70.3125 28.7976 70.3125 37.5C70.3125 46.2024 66.8555 54.5484 60.7019 60.7019C54.5484 66.8555 46.2024 70.3125 37.5 70.3125ZM37.5 75C47.4456 75 56.9839 71.0491 64.0165 64.0165C71.0491 56.9839 75 47.4456 75 37.5C75 27.5544 71.0491 18.0161 64.0165 10.9835C56.9839 3.95088 47.4456 0 37.5 0C27.5544 0 18.0161 3.95088 10.9835 10.9835C3.95088 18.0161 0 27.5544 0 37.5C0 47.4456 3.95088 56.9839 10.9835 64.0165C18.0161 71.0491 27.5544 75 37.5 75Z" fill="white"/>
<path d="M42.5516 18.776C41.0693 13.7413 33.9307 13.7413 32.4484 18.776L32.184 19.6733C32.0805 20.0247 31.8997 20.3485 31.6547 20.621C31.4098 20.8935 31.107 21.1077 30.7685 21.2479C30.4301 21.3882 30.0645 21.4509 29.6986 21.4315C29.3328 21.4121 28.9759 21.3111 28.6541 21.1359L27.8328 20.6858C23.22 18.1769 18.1769 23.2229 20.6886 27.8328L21.1359 28.6541C21.3111 28.9759 21.4121 29.3328 21.4315 29.6986C21.4509 30.0645 21.3882 30.4301 21.2479 30.7685C21.1077 31.107 20.8935 31.4098 20.621 31.6547C20.3485 31.8997 20.0247 32.0805 19.6733 32.184L18.776 32.4484C13.7413 33.9307 13.7413 41.0693 18.776 42.5516L19.6733 42.816C20.0247 42.9195 20.3485 43.1003 20.621 43.3453C20.8935 43.5902 21.1077 43.893 21.2479 44.2315C21.3882 44.5699 21.4509 44.9355 21.4315 45.3014C21.4121 45.6672 21.3111 46.0241 21.1359 46.3459L20.6858 47.1672C18.1769 51.78 23.22 56.8259 27.8328 54.3114L28.6541 53.8642C28.9759 53.6889 29.3328 53.5879 29.6986 53.5685C30.0645 53.5491 30.4301 53.6118 30.7685 53.7521C31.107 53.8923 31.4098 54.1065 31.6547 54.379C31.8997 54.6515 32.0805 54.9753 32.184 55.3267L32.4484 56.224C33.9307 61.2587 41.0693 61.2587 42.5516 56.224L42.816 55.3267C42.9195 54.9753 43.1003 54.6515 43.3453 54.379C43.5902 54.1065 43.893 53.8923 44.2315 53.7521C44.5699 53.6118 44.9355 53.5491 45.3014 53.5685C45.6672 53.5879 46.0241 53.6889 46.3459 53.8642L47.1672 54.3142C51.78 56.8259 56.8259 51.7771 54.3114 47.1672L53.8642 46.3459C53.6889 46.0241 53.5879 45.6672 53.5685 45.3014C53.5491 44.9355 53.6118 44.5699 53.7521 44.2315C53.8923 43.893 54.1065 43.5902 54.379 43.3453C54.6515 43.1003 54.9753 42.9195 55.3267 42.816L56.224 42.5516C61.2587 41.0693 61.2587 33.9307 56.224 32.4484L55.3267 32.184C54.9753 32.0805 54.6515 31.8997 54.379 31.6547C54.1065 31.4098 53.8923 31.107 53.7521 30.7685C53.6118 30.4301 53.5491 30.0645 53.5685 29.6986C53.5879 29.3328 53.6889 28.9759 53.8642 28.6541L54.3142 27.8328C56.8259 23.22 51.7771 18.1769 47.1672 20.6886L46.3459 21.1359C46.0241 21.3111 45.6672 21.4121 45.3014 21.4315C44.9355 21.4509 44.5699 21.3882 44.2315 21.2479C43.893 21.1077 43.5902 20.8935 43.3453 20.621C43.1003 20.3485 42.9195 20.0247 42.816 19.6733L42.5516 18.776ZM35.1458 19.572C35.8377 17.2234 39.1623 17.2234 39.8542 19.572L40.1186 20.4692C40.3409 21.2233 40.7291 21.918 41.2547 22.5025C41.7804 23.087 42.4302 23.5465 43.1565 23.8472C43.8828 24.1479 44.6672 24.2823 45.4522 24.2405C46.2372 24.1986 47.0029 23.9816 47.6931 23.6054L48.5116 23.1554C50.6605 21.9881 53.0119 24.3367 51.8418 26.4884L51.3946 27.3097C51.019 28 50.8025 28.7656 50.7611 29.5504C50.7197 30.3352 50.8544 31.1194 51.1554 31.8454C51.4564 32.5713 51.916 33.2208 52.5005 33.7461C53.085 34.2715 53.7797 34.6594 54.5336 34.8814L55.428 35.1458C57.7766 35.8377 57.7766 39.1623 55.428 39.8542L54.5308 40.1186C53.7767 40.3409 53.082 40.7291 52.4975 41.2547C51.913 41.7804 51.4535 42.4302 51.1528 43.1565C50.8521 43.8828 50.7177 44.6672 50.7595 45.4522C50.8014 46.2372 51.0184 47.0029 51.3946 47.6931L51.8447 48.5116C53.0119 50.6605 50.6633 53.0119 48.5116 51.8418L47.6931 51.3946C47.0027 51.0184 46.2369 50.8015 45.4517 50.7599C44.6666 50.7182 43.882 50.8528 43.1557 51.1538C42.4293 51.4548 41.7796 51.9146 41.254 52.4994C40.7285 53.0842 40.3405 53.7793 40.1186 54.5336L39.8542 55.428C39.1623 57.7766 35.8377 57.7766 35.1458 55.428L34.8814 54.5308C34.659 53.7771 34.2709 53.0828 33.7454 52.4985C33.22 51.9143 32.5705 51.4551 31.8445 51.1544C31.1186 50.8537 30.3345 50.7192 29.5499 50.7608C28.7652 50.8023 27.9998 51.0189 27.3097 51.3946L26.4884 51.8447C24.3395 53.0119 21.9881 50.6633 23.1582 48.5116L23.6054 47.6931C23.9821 47.0028 24.1996 46.2369 24.2417 45.4515C24.2838 44.6662 24.1496 43.8814 23.8488 43.1547C23.548 42.428 23.0884 41.7779 22.5036 41.2521C21.9188 40.7262 21.2237 40.338 20.4692 40.1158L19.572 39.8514C17.2234 39.1595 17.2234 35.8349 19.572 35.143L20.4692 34.8786C21.2225 34.6561 21.9165 34.2681 22.5004 33.7428C23.0843 33.2175 23.5434 32.5683 23.844 31.8427C24.1447 31.1171 24.2793 30.3335 24.238 29.5492C24.1967 28.7649 23.9806 27.9997 23.6054 27.3097L23.1554 26.4884C21.9881 24.3395 24.3367 21.9881 26.4884 23.1582L27.3097 23.6054C27.9998 23.9811 28.7652 24.1977 29.5499 24.2392C30.3345 24.2808 31.1186 24.1463 31.8445 23.8456C32.5705 23.5449 33.22 23.0857 33.7454 22.5015C34.2709 21.9173 34.659 21.2229 34.8814 20.4692L35.1458 19.572Z" fill="white"/>
<path d="M37.4996 28.3701C36.3006 28.3701 35.1134 28.6063 34.0057 29.0651C32.898 29.5239 31.8915 30.1964 31.0437 31.0442C30.1959 31.892 29.5234 32.8985 29.0646 34.0062C28.6058 35.1139 28.3696 36.3011 28.3696 37.5001C28.3696 38.699 28.6058 39.8862 29.0646 40.9939C29.5234 42.1016 30.1959 43.1081 31.0437 43.9559C31.8915 44.8037 32.898 45.4762 34.0057 45.935C35.1134 46.3939 36.3006 46.63 37.4996 46.63C39.921 46.63 42.2432 45.6681 43.9554 43.9559C45.6676 42.2437 46.6295 39.9215 46.6295 37.5001C46.6295 35.0787 45.6676 32.7564 43.9554 31.0442C42.2432 29.332 39.921 28.3701 37.4996 28.3701ZM31.1823 37.5001C31.1823 35.8246 31.8479 34.2178 33.0326 33.0331C34.2173 31.8484 35.8241 31.1828 37.4996 31.1828C39.175 31.1828 40.7818 31.8484 41.9666 33.0331C43.1513 34.2178 43.8168 35.8246 43.8168 37.5001C43.8168 39.1755 43.1513 40.7823 41.9666 41.967C40.7818 43.1518 39.175 43.8173 37.4996 43.8173C35.8241 43.8173 34.2173 43.1518 33.0326 41.967C31.8479 40.7823 31.1823 39.1755 31.1823 37.5001Z" fill="white"/>
</g>
<defs>
<clipPath id="clip0_73_23">
<rect width="75" height="75" fill="white"/>
</clipPath>
</defs>
</svg>
