<svg width="75" height="75" viewBox="0 0 75 75" fill="none" xmlns="http://www.w3.org/2000/svg">
<g clip-path="url(#clip0_29_317)">
<path d="M37.5 70.3125C28.7976 70.3125 20.4516 66.8555 14.2981 60.7019C8.14452 54.5484 4.6875 46.2024 4.6875 37.5C4.6875 28.7976 8.14452 20.4516 14.2981 14.2981C20.4516 8.14452 28.7976 4.6875 37.5 4.6875C46.2024 4.6875 54.5484 8.14452 60.7019 14.2981C66.8555 20.4516 70.3125 28.7976 70.3125 37.5C70.3125 46.2024 66.8555 54.5484 60.7019 60.7019C54.5484 66.8555 46.2024 70.3125 37.5 70.3125ZM37.5 75C47.4456 75 56.9839 71.0491 64.0165 64.0165C71.0491 56.9839 75 47.4456 75 37.5C75 27.5544 71.0491 18.0161 64.0165 10.9835C56.9839 3.95088 47.4456 0 37.5 0C27.5544 0 18.0161 3.95088 10.9835 10.9835C3.95088 18.0161 0 27.5544 0 37.5C0 47.4456 3.95088 56.9839 10.9835 64.0165C18.0161 71.0491 27.5544 75 37.5 75Z" fill="#FFFEF9"/>
<path d="M29.3953 23.6953C29.7787 23.4979 30.2091 23.4101 30.6391 23.4415C31.0692 23.4729 31.4822 23.6224 31.8328 23.8734L48.2391 35.5922C48.5429 35.809 48.7905 36.0952 48.9614 36.4271C49.1323 36.7589 49.2214 37.1268 49.2214 37.5C49.2214 37.8732 49.1323 38.2411 48.9614 38.5729C48.7905 38.9048 48.5429 39.191 48.2391 39.4078L31.8328 51.1266C31.4823 51.3774 31.0695 51.5267 30.6397 51.5582C30.2098 51.5896 29.7797 51.5019 29.3964 51.3047C29.0132 51.1075 28.6918 50.8085 28.4675 50.4405C28.2431 50.0725 28.1247 49.6497 28.125 49.2188V25.7813C28.1245 25.3504 28.2429 24.9277 28.467 24.5597C28.6911 24.1917 29.0123 23.8926 29.3953 23.6953Z" fill="#FFFEF9"/>
</g>
<defs>
<clipPath id="clip0_29_317">
<rect width="75" height="75" fill="white"/>
</clipPath>
</defs>
</svg>
