<svg width="75" height="75" viewBox="0 0 75 75" fill="none" xmlns="http://www.w3.org/2000/svg">
<g clip-path="url(#clip0_29_254)">
<path d="M37.5 70.3125C28.7976 70.3125 20.4516 66.8555 14.2981 60.7019C8.14452 54.5484 4.6875 46.2024 4.6875 37.5C4.6875 28.7976 8.14452 20.4516 14.2981 14.2981C20.4516 8.14452 28.7976 4.6875 37.5 4.6875C46.2024 4.6875 54.5484 8.14452 60.7019 14.2981C66.8555 20.4516 70.3125 28.7976 70.3125 37.5C70.3125 46.2024 66.8555 54.5484 60.7019 60.7019C54.5484 66.8555 46.2024 70.3125 37.5 70.3125ZM37.5 75C47.4456 75 56.9839 71.0491 64.0165 64.0165C71.0491 56.9839 75 47.4456 75 37.5C75 27.5544 71.0491 18.0161 64.0165 10.9835C56.9839 3.95088 47.4456 0 37.5 0C27.5544 0 18.0161 3.95088 10.9835 10.9835C3.95088 18.0161 0 27.5544 0 37.5C0 47.4456 3.95088 56.9839 10.9835 64.0165C18.0161 71.0491 27.5544 75 37.5 75Z" fill="#FFFEF9"/>
<path d="M31.75 53.625C31.75 57.0781 28.25 59.875 23.9375 59.875C19.625 59.875 16.125 57.0781 16.125 53.625C16.125 50.1719 19.625 47.375 23.9375 47.375C28.25 47.375 31.75 50.175 31.75 53.625ZM59.875 47.375C59.875 50.8281 56.375 53.625 52.0625 53.625C47.75 53.625 44.25 50.8281 44.25 47.375C44.25 43.9219 47.75 41.125 52.0625 41.125C56.375 41.125 59.875 43.9219 59.875 47.375Z" fill="#FFFEF9"/>
<path fill-rule="evenodd" clip-rule="evenodd" d="M56.75 47.375V19.25H59.875V47.375H56.75ZM31.75 22.375V53.625H28.625V22.375H31.75Z" fill="#FFFEF9"/>
<path d="M28.625 22.0781C28.625 21.3034 28.9127 20.5563 29.4324 19.9818C29.9521 19.4072 30.6667 19.0462 31.4375 18.9688L56.4375 16.4687C56.872 16.4251 57.3109 16.473 57.7258 16.6094C58.1407 16.7457 58.5224 16.9676 58.8463 17.2605C59.1702 17.5535 59.4291 17.9111 59.6063 18.3103C59.7835 18.7095 59.875 19.1414 59.875 19.5781V22.375L28.625 25.5V22.0781Z" fill="#FFFEF9"/>
</g>
<defs>
<clipPath id="clip0_29_254">
<rect width="75" height="75" fill="white"/>
</clipPath>
</defs>
</svg>
