<svg width="118" height="118" viewBox="0 0 118 118" fill="none" xmlns="http://www.w3.org/2000/svg">
<path d="M83.5833 34.4167H34.4166C20.8396 34.4167 9.83331 45.423 9.83331 59C9.83331 72.577 20.8396 83.5834 34.4166 83.5834H83.5833C97.1603 83.5834 108.167 72.577 108.167 59C108.167 45.423 97.1603 34.4167 83.5833 34.4167Z" stroke="black" stroke-width="2" stroke-linecap="round" stroke-linejoin="round"/>
<g clip-path="url(#clip0_19_27)">
<path d="M84 66.5C82.0109 66.5 80.1032 65.7098 78.6967 64.3033C77.2902 62.8968 76.5 60.9891 76.5 59C76.5 57.0109 77.2902 55.1032 78.6967 53.6967C80.1032 52.2902 82.0109 51.5 84 51.5C85.9891 51.5 87.8968 52.2902 89.3033 53.6967C90.7098 55.1032 91.5 57.0109 91.5 59C91.5 60.9891 90.7098 62.8968 89.3033 64.3033C87.8968 65.7098 85.9891 66.5 84 66.5ZM84 69C86.6522 69 89.1957 67.9464 91.0711 66.0711C92.9464 64.1957 94 61.6522 94 59C94 56.3478 92.9464 53.8043 91.0711 51.9289C89.1957 50.0536 86.6522 49 84 49C81.3478 49 78.8043 50.0536 76.9289 51.9289C75.0536 53.8043 74 56.3478 74 59C74 61.6522 75.0536 64.1957 76.9289 66.0711C78.8043 67.9464 81.3478 69 84 69ZM84 39C84.3315 39 84.6495 39.1317 84.8839 39.3661C85.1183 39.6005 85.25 39.9185 85.25 40.25V45.25C85.25 45.5815 85.1183 45.8995 84.8839 46.1339C84.6495 46.3683 84.3315 46.5 84 46.5C83.6685 46.5 83.3505 46.3683 83.1161 46.1339C82.8817 45.8995 82.75 45.5815 82.75 45.25V40.25C82.75 39.9185 82.8817 39.6005 83.1161 39.3661C83.3505 39.1317 83.6685 39 84 39ZM84 71.5C84.3315 71.5 84.6495 71.6317 84.8839 71.8661C85.1183 72.1005 85.25 72.4185 85.25 72.75V77.75C85.25 78.0815 85.1183 78.3995 84.8839 78.6339C84.6495 78.8683 84.3315 79 84 79C83.6685 79 83.3505 78.8683 83.1161 78.6339C82.8817 78.3995 82.75 78.0815 82.75 77.75V72.75C82.75 72.4185 82.8817 72.1005 83.1161 71.8661C83.3505 71.6317 83.6685 71.5 84 71.5ZM104 59C104 59.3315 103.868 59.6495 103.634 59.8839C103.399 60.1183 103.082 60.25 102.75 60.25H97.75C97.4185 60.25 97.1005 60.1183 96.8661 59.8839C96.6317 59.6495 96.5 59.3315 96.5 59C96.5 58.6685 96.6317 58.3505 96.8661 58.1161C97.1005 57.8817 97.4185 57.75 97.75 57.75H102.75C103.082 57.75 103.399 57.8817 103.634 58.1161C103.868 58.3505 104 58.6685 104 59ZM71.5 59C71.5 59.3315 71.3683 59.6495 71.1339 59.8839C70.8995 60.1183 70.5815 60.25 70.25 60.25H65.25C64.9185 60.25 64.6005 60.1183 64.3661 59.8839C64.1317 59.6495 64 59.3315 64 59C64 58.6685 64.1317 58.3505 64.3661 58.1161C64.6005 57.8817 64.9185 57.75 65.25 57.75H70.25C70.5815 57.75 70.8995 57.8817 71.1339 58.1161C71.3683 58.3505 71.5 58.6685 71.5 59ZM98.1425 44.8575C98.3768 45.0919 98.5085 45.4098 98.5085 45.7413C98.5085 46.0727 98.3768 46.3906 98.1425 46.625L94.6075 50.1625C94.4913 50.2786 94.3533 50.3706 94.2016 50.4333C94.0498 50.4961 93.8871 50.5283 93.7229 50.5282C93.3912 50.528 93.0731 50.396 92.8387 50.1613C92.7227 50.045 92.6307 49.9071 92.5679 49.7553C92.5052 49.6035 92.4729 49.4409 92.4731 49.2766C92.4733 48.9449 92.6053 48.6269 92.84 48.3925L96.375 44.8575C96.6094 44.6232 96.9273 44.4915 97.2588 44.4915C97.5902 44.4915 97.9081 44.6232 98.1425 44.8575ZM75.16 67.84C75.3943 68.0744 75.526 68.3923 75.526 68.7237C75.526 69.0552 75.3943 69.3731 75.16 69.6075L71.625 73.1425C71.3892 73.3702 71.0735 73.4962 70.7457 73.4933C70.418 73.4905 70.1045 73.359 69.8727 73.1273C69.641 72.8955 69.5095 72.582 69.5067 72.2542C69.5038 71.9265 69.6298 71.6108 69.8575 71.375L73.3925 67.84C73.6269 67.6057 73.9448 67.474 74.2762 67.474C74.6077 67.474 74.9256 67.6057 75.16 67.84ZM98.1425 73.1425C97.9081 73.3768 97.5902 73.5085 97.2588 73.5085C96.9273 73.5085 96.6094 73.3768 96.375 73.1425L92.84 69.6075C92.6123 69.3717 92.4863 69.056 92.4892 68.7282C92.492 68.4005 92.6235 68.087 92.8552 67.8552C93.087 67.6235 93.4005 67.492 93.7282 67.4892C94.056 67.4863 94.3717 67.6123 94.6075 67.84L98.1425 71.375C98.3768 71.6094 98.5085 71.9273 98.5085 72.2588C98.5085 72.5902 98.3768 72.9081 98.1425 73.1425ZM75.16 50.1625C74.9256 50.3968 74.6077 50.5285 74.2762 50.5285C73.9448 50.5285 73.6269 50.3968 73.3925 50.1625L69.8575 46.625C69.7381 46.5097 69.6429 46.3718 69.5774 46.2193C69.5119 46.0668 69.4774 45.9027 69.4759 45.7368C69.4745 45.5708 69.5061 45.4062 69.569 45.2526C69.6318 45.0989 69.7246 44.9594 69.842 44.842C69.9594 44.7246 70.0989 44.6318 70.2526 44.569C70.4062 44.5061 70.5708 44.4745 70.7368 44.4759C70.9027 44.4774 71.0668 44.5119 71.2193 44.5774C71.3718 44.6429 71.5097 44.7381 71.625 44.8575L75.16 48.3925C75.2764 48.5086 75.3688 48.6466 75.4318 48.7984C75.4948 48.9503 75.5272 49.1131 75.5272 49.2775C75.5272 49.4419 75.4948 49.6047 75.4318 49.7566C75.3688 49.9084 75.2764 50.0464 75.16 50.1625Z" fill="black"/>
</g>
<defs>
<clipPath id="clip0_19_27">
<rect width="40" height="40" fill="white" transform="translate(64 39)"/>
</clipPath>
</defs>
</svg>
