<svg width="75" height="75" viewBox="0 0 75 75" fill="none" xmlns="http://www.w3.org/2000/svg">
<g clip-path="url(#clip0_19_37)">
<path d="M37.5001 22.2844C35.5019 22.2844 33.5233 22.678 31.6773 23.4426C29.8312 24.2073 28.1539 25.3281 26.741 26.741C25.3281 28.1539 24.2073 29.8312 23.4426 31.6773C22.678 33.5233 22.2844 35.5019 22.2844 37.5C22.2844 39.4982 22.678 41.4768 23.4426 43.3228C24.2073 45.1689 25.3281 46.8462 26.741 48.2591C28.1539 49.672 29.8312 50.7928 31.6773 51.5575C33.5233 52.3221 35.5019 52.7157 37.5001 52.7157C41.5355 52.7157 45.4056 51.1126 48.2591 48.2591C51.1126 45.4056 52.7157 41.5355 52.7157 37.5C52.7157 33.4646 51.1126 29.5945 48.2591 26.741C45.4056 23.8875 41.5355 22.2844 37.5001 22.2844ZM26.9719 37.5C26.9719 34.7078 28.0811 32.0299 30.0555 30.0555C32.0299 28.0811 34.7078 26.9719 37.5001 26.9719C40.2923 26.9719 42.9701 28.0811 44.9446 30.0555C46.919 32.0299 48.0282 34.7078 48.0282 37.5C48.0282 40.2923 46.919 42.9701 44.9446 44.9446C42.9701 46.919 40.2923 48.0282 37.5001 48.0282C34.7078 48.0282 32.0299 46.919 30.0555 44.9446C28.0811 42.9701 26.9719 40.2923 26.9719 37.5Z" fill="white"/>
<path d="M45.9188 6.29529C43.4485 -2.09534 31.5517 -2.09534 29.0813 6.29529L28.6407 7.7906C28.4682 8.37631 28.1668 8.916 27.7586 9.37009C27.3504 9.82419 26.8458 10.1812 26.2817 10.4149C25.7176 10.6486 25.1084 10.7532 24.4986 10.7208C23.8889 10.6885 23.2941 10.5202 22.7579 10.2281L21.3892 9.4781C13.7017 5.29685 5.29697 13.7062 9.48291 21.389L10.2282 22.7578C10.5203 23.294 10.6886 23.8888 10.721 24.4985C10.7533 25.1082 10.6488 25.7175 10.415 26.2816C10.1813 26.8457 9.82431 27.3503 9.37021 27.7585C8.91612 28.1667 8.37644 28.4681 7.79072 28.6406L6.29541 29.0812C-2.09521 31.5515 -2.09521 43.4484 6.29541 45.9187L7.79072 46.3594C8.37644 46.5319 8.91612 46.8333 9.37021 47.2415C9.82431 47.6497 10.1813 48.1543 10.415 48.7184C10.6488 49.2825 10.7533 49.8917 10.721 50.5014C10.6886 51.1112 10.5203 51.706 10.2282 52.2422L9.47822 53.6109C5.29697 61.2984 13.7017 69.7078 21.3892 65.5172L22.7579 64.7719C23.2941 64.4798 23.8889 64.3114 24.4986 64.2791C25.1084 64.2468 25.7176 64.3513 26.2817 64.585C26.8458 64.8188 27.3504 65.1758 27.7586 65.6299C28.1668 66.084 28.4682 66.6236 28.6407 67.2094L29.0813 68.7047C31.5517 77.0953 43.4485 77.0953 45.9188 68.7047L46.3595 67.2094C46.532 66.6236 46.8334 66.084 47.2416 65.6299C47.6498 65.1758 48.1544 64.8188 48.7185 64.585C49.2826 64.3513 49.8918 64.2468 50.5016 64.2791C51.1113 64.3114 51.7061 64.4798 52.2423 64.7719L53.611 65.5219C61.2985 69.7078 69.7079 61.2937 65.5173 53.6109L64.772 52.2422C64.4799 51.706 64.3116 51.1112 64.2792 50.5014C64.2469 49.8917 64.3514 49.2825 64.5852 48.7184C64.8189 48.1543 65.1759 47.6497 65.63 47.2415C66.0841 46.8333 66.6238 46.5319 67.2095 46.3594L68.7048 45.9187C77.0954 43.4484 77.0954 31.5515 68.7048 29.0812L67.2095 28.6406C66.6238 28.4681 66.0841 28.1667 65.63 27.7585C65.1759 27.3503 64.8189 26.8457 64.5852 26.2816C64.3514 25.7175 64.2469 25.1082 64.2792 24.4985C64.3116 23.8888 64.4799 23.294 64.772 22.7578L65.522 21.389C69.7079 13.7015 61.2938 5.29685 53.611 9.48279L52.2423 10.2281C51.7061 10.5202 51.1113 10.6885 50.5016 10.7208C49.8918 10.7532 49.2826 10.6486 48.7185 10.4149C48.1544 10.1812 47.6498 9.82419 47.2416 9.37009C46.8334 8.916 46.532 8.37631 46.3595 7.7906L45.9188 6.29529ZM33.5767 7.62185C34.7298 3.70779 40.2704 3.70779 41.4235 7.62185L41.8642 9.11716C42.2346 10.3738 42.8815 11.5316 43.7576 12.5058C44.6336 13.4799 45.7166 14.2456 46.927 14.7468C48.1375 15.2479 49.4447 15.4719 50.753 15.4021C52.0612 15.3324 53.3373 14.9707 54.4876 14.3437L55.8517 13.5937C59.4329 11.6484 63.3517 15.5625 61.4017 19.1484L60.6563 20.5172C60.0303 21.6676 59.6695 22.9435 59.6005 24.2515C59.5316 25.5594 59.7561 26.8662 60.2577 28.0762C60.7593 29.2861 61.5252 30.3684 62.4993 31.2439C63.4735 32.1194 64.6312 32.7659 65.8876 33.1359L67.3782 33.5765C71.2923 34.7297 71.2923 40.2703 67.3782 41.4234L65.8829 41.864C64.6263 42.2344 63.4684 42.8814 62.4943 43.7574C61.5202 44.6335 60.7545 45.7164 60.2533 46.9269C59.7521 48.1373 59.5282 49.4446 59.598 50.7529C59.6677 52.0611 60.0293 53.3372 60.6563 54.4875L61.4063 55.8515C63.3517 59.4328 59.4376 63.3515 55.8517 61.4015L54.4876 60.6562C53.337 60.0293 52.0606 59.6678 50.7521 59.5984C49.4436 59.5289 48.1362 59.7533 46.9256 60.2549C45.7151 60.7566 44.6322 61.5228 43.7564 62.4974C42.8806 63.4721 42.234 64.6304 41.8642 65.8875L41.4235 67.3781C40.2704 71.2922 34.7298 71.2922 33.5767 67.3781L33.136 65.8828C32.7655 64.6268 32.1186 63.4696 31.2429 62.496C30.3672 61.5223 29.2847 60.7569 28.0749 60.2558C26.865 59.7547 25.5584 59.5306 24.2507 59.5999C22.943 59.6692 21.6674 60.0301 20.5173 60.6562L19.1485 61.4062C15.5673 63.3515 11.6485 59.4375 13.5985 55.8515L14.3438 54.4875C14.9717 53.337 15.3341 52.0605 15.4043 50.7517C15.4745 49.4429 15.2508 48.135 14.7495 46.9239C14.2483 45.7129 13.4823 44.6294 12.5077 43.753C11.533 42.8766 10.3746 42.2296 9.11728 41.8594L7.62197 41.4187C3.70791 40.2656 3.70791 34.725 7.62197 33.5718L9.11728 33.1312C10.3726 32.7605 11.5292 32.1138 12.5023 31.2384C13.4755 30.363 14.2406 29.281 14.7416 28.0718C15.2426 26.8626 15.467 25.5566 15.3981 24.2494C15.3293 22.9423 14.9691 21.6671 14.3438 20.5172L13.5938 19.1484C11.6485 15.5672 15.5626 11.6484 19.1485 13.5984L20.5173 14.3437C21.6674 14.9699 22.943 15.3308 24.2507 15.4001C25.5584 15.4693 26.865 15.2452 28.0749 14.7441C29.2847 14.243 30.3672 13.4776 31.2429 12.504C32.1186 11.5304 32.7655 10.3732 33.136 9.11716L33.5767 7.62185Z" fill="white"/>
</g>
<defs>
<clipPath id="clip0_19_37">
<rect width="75" height="75" fill="white"/>
</clipPath>
</defs>
</svg>
