<svg width="75" height="75" viewBox="0 0 75 75" fill="none" xmlns="http://www.w3.org/2000/svg">
<g clip-path="url(#clip0_29_215)">
<path d="M37.5 70.3125C28.7976 70.3125 20.4516 66.8555 14.2981 60.7019C8.14452 54.5484 4.6875 46.2024 4.6875 37.5C4.6875 28.7976 8.14452 20.4516 14.2981 14.2981C20.4516 8.14452 28.7976 4.6875 37.5 4.6875C46.2024 4.6875 54.5484 8.14452 60.7019 14.2981C66.8555 20.4516 70.3125 28.7976 70.3125 37.5C70.3125 46.2024 66.8555 54.5484 60.7019 60.7019C54.5484 66.8555 46.2024 70.3125 37.5 70.3125ZM37.5 75C47.4456 75 56.9839 71.0491 64.0165 64.0165C71.0491 56.9839 75 47.4456 75 37.5C75 27.5544 71.0491 18.0161 64.0165 10.9835C56.9839 3.95088 47.4456 0 37.5 0C27.5544 0 18.0161 3.95088 10.9835 10.9835C3.95088 18.0161 0 27.5544 0 37.5C0 47.4456 3.95088 56.9839 10.9835 64.0165C18.0161 71.0491 27.5544 75 37.5 75Z" fill="white"/>
<path d="M21.7782 21.7782C21.9959 21.5599 22.2545 21.3867 22.5393 21.2686C22.824 21.1504 23.1293 21.0896 23.4375 21.0896C23.7458 21.0896 24.0511 21.1504 24.3358 21.2686C24.6206 21.3867 24.8792 21.5599 25.0969 21.7782L37.5 34.186L49.9032 21.7782C50.1211 21.5603 50.3798 21.3874 50.6645 21.2695C50.9492 21.1515 51.2544 21.0908 51.5625 21.0908C51.8707 21.0908 52.1759 21.1515 52.4606 21.2695C52.7453 21.3874 53.004 21.5603 53.2219 21.7782C53.4398 21.9961 53.6127 22.2548 53.7306 22.5395C53.8485 22.8242 53.9092 23.1294 53.9092 23.4375C53.9092 23.7457 53.8485 24.0509 53.7306 24.3356C53.6127 24.6203 53.4398 24.879 53.2219 25.0969L40.8141 37.5L53.2219 49.9032C53.4398 50.1211 53.6127 50.3798 53.7306 50.6645C53.8485 50.9492 53.9092 51.2544 53.9092 51.5625C53.9092 51.8707 53.8485 52.1759 53.7306 52.4606C53.6127 52.7453 53.4398 53.004 53.2219 53.2219C53.004 53.4398 52.7453 53.6127 52.4606 53.7306C52.1759 53.8485 51.8707 53.9092 51.5625 53.9092C51.2544 53.9092 50.9492 53.8485 50.6645 53.7306C50.3798 53.6127 50.1211 53.4398 49.9032 53.2219L37.5 40.8141L25.0969 53.2219C24.879 53.4398 24.6203 53.6127 24.3356 53.7306C24.0509 53.8485 23.7457 53.9092 23.4375 53.9092C23.1294 53.9092 22.8242 53.8485 22.5395 53.7306C22.2548 53.6127 21.9961 53.4398 21.7782 53.2219C21.5603 53.004 21.3874 52.7453 21.2695 52.4606C21.1515 52.1759 21.0908 51.8707 21.0908 51.5625C21.0908 51.2544 21.1515 50.9492 21.2695 50.6645C21.3874 50.3798 21.5603 50.1211 21.7782 49.9032L34.186 37.5L21.7782 25.0969C21.5599 24.8792 21.3867 24.6206 21.2686 24.3358C21.1504 24.0511 21.0896 23.7458 21.0896 23.4375C21.0896 23.1293 21.1504 22.824 21.2686 22.5393C21.3867 22.2545 21.5599 21.9959 21.7782 21.7782Z" fill="white"/>
</g>
<defs>
<clipPath id="clip0_29_215">
<rect width="75" height="75" fill="white"/>
</clipPath>
</defs>
</svg>
