<svg width="85" height="85" viewBox="0 0 85 85" fill="none" xmlns="http://www.w3.org/2000/svg">
<g clip-path="url(#clip0_29_264)">
<mask id="mask0_29_264" style="mask-type:luminance" maskUnits="userSpaceOnUse" x="0" y="0" width="85" height="85">
<path d="M85 0H0V85H85V0Z" fill="white"/>
</mask>
<g mask="url(#mask0_29_264)">
<path d="M46.6882 75.3015H38.9609V81.6085H46.6882V75.3015Z" fill="#FFFEF9"/>
<mask id="mask1_29_264" style="mask-type:luminance" maskUnits="userSpaceOnUse" x="38" y="75" width="9" height="7">
<path d="M46.6882 75.3015H38.9609V81.6085H46.6882V75.3015Z" fill="white"/>
</mask>
<g mask="url(#mask1_29_264)">
<path d="M46.6882 75.3015H38.9609V81.6085H46.6882V75.3015Z" fill="#FFFEF9" stroke="#FFFEF9" stroke-width="5.33333" stroke-miterlimit="2" stroke-linecap="square"/>
</g>
<path d="M2.61743 39.1471V46.8744H8.92443V39.1471H2.61743Z" fill="#FFFEF9"/>
<mask id="mask2_29_264" style="mask-type:luminance" maskUnits="userSpaceOnUse" x="1" y="39" width="9" height="8">
<path d="M9.63523 39.8573H1.90796V46.1643H9.63523V39.8573Z" fill="white"/>
</mask>
<g mask="url(#mask2_29_264)">
<path d="M2.61743 39.1471V46.8744H8.92443V39.1471H2.61743Z" fill="#FFFEF9" stroke="#FFFEF9" stroke-width="5.33333" stroke-miterlimit="2" stroke-linecap="square"/>
</g>
<path d="M75.2544 39.008V46.7353H81.5614V39.008H75.2544Z" fill="#FFFEF9"/>
<mask id="mask3_29_264" style="mask-type:luminance" maskUnits="userSpaceOnUse" x="74" y="39" width="9" height="8">
<path d="M82.2717 39.7182H74.5444V46.0252H82.2717V39.7182Z" fill="white"/>
</mask>
<g mask="url(#mask3_29_264)">
<path d="M75.2546 39.008V46.7353H81.5616V39.008H75.2546Z" fill="#FFFEF9" stroke="#FFFEF9" stroke-width="5.33333" stroke-miterlimit="2" stroke-linecap="square"/>
</g>
<mask id="mask4_29_264" style="mask-type:luminance" maskUnits="userSpaceOnUse" x="7" y="7" width="71" height="71">
<path d="M42.5 77.2727C61.7045 77.2727 77.2727 61.7044 77.2727 42.5C77.2727 23.2956 61.7045 7.72727 42.5 7.72727C23.2956 7.72727 7.72729 23.2956 7.72729 42.5C7.72729 61.7044 23.2956 77.2727 42.5 77.2727Z" fill="white"/>
</mask>
<g mask="url(#mask4_29_264)">
<path d="M42.5 77.2727C61.7045 77.2727 77.2727 61.7044 77.2727 42.5C77.2727 23.2956 61.7045 7.72727 42.5 7.72727C23.2956 7.72727 7.72729 23.2956 7.72729 42.5C7.72729 61.7044 23.2956 77.2727 42.5 77.2727Z" stroke="#FFFEF9" stroke-width="21.3333" stroke-miterlimit="3" stroke-linecap="square"/>
</g>
<mask id="mask5_29_264" style="mask-type:luminance" maskUnits="userSpaceOnUse" x="15" y="15" width="55" height="55">
<path d="M42.3747 69.4492C57.3429 69.4492 69.4771 57.315 69.4771 42.3467C69.4771 27.3784 57.3429 15.2443 42.3747 15.2443C27.4064 15.2443 15.2722 27.3784 15.2722 42.3467C15.2722 57.315 27.4064 69.4492 42.3747 69.4492Z" fill="white"/>
</mask>
<g mask="url(#mask5_29_264)">
<path d="M42.3747 69.4492C57.3429 69.4492 69.4771 57.315 69.4771 42.3467C69.4771 27.3784 57.3429 15.2443 42.3747 15.2443C27.4064 15.2443 15.2722 27.3784 15.2722 42.3467C15.2722 57.315 27.4064 69.4492 42.3747 69.4492Z" stroke="#FF0000" stroke-width="9.33333" stroke-miterlimit="3" stroke-linecap="square"/>
</g>
<path d="M38.4385 20.4216C42.2805 13.2193 47.1999 9.1715 53.1968 8.27823C62.1921 6.93909 64.0243 1.84141 64.0243 2.73468C59.8041 8.9845 56.306 12.2088 53.5298 12.4077C51.0422 12.5854 49.0988 14.5821 47.6996 18.3979C42.0809 21.632 38.9938 22.3066 38.4385 20.4216Z" fill="#00C344" stroke="#FFFEF9" stroke-width="2" stroke-miterlimit="3" stroke-linecap="square"/>
<path d="M43.4073 18.6428C36.0504 17.528 30.6519 19.2095 27.2117 23.6872C22.0514 30.4037 12.9603 29.393 13.8667 29.7701C26.7439 28.8191 33.0244 27.2379 32.7081 25.0263C32.3923 22.8148 35.1131 21.5846 40.8704 21.3358C44.239 20.7866 45.0846 19.889 43.4073 18.6428Z" fill="#00C344" stroke="#FFFEF9" stroke-width="2" stroke-miterlimit="3" stroke-linecap="square"/>
<path d="M39.5706 18.7695C47.0022 17.4466 52.3338 18.7997 55.5653 22.8287C60.4118 28.8722 66.6686 28.9788 65.7421 29.3644C54.8142 28.0482 49.5628 26.3559 49.9878 24.2876C50.4122 22.2193 47.5575 21.1887 41.4236 21.1959C38.445 20.8023 37.8274 19.9935 39.5706 18.7695Z" fill="#00C344" stroke="#FFFEF9" stroke-width="2" stroke-miterlimit="3" stroke-linecap="square"/>
<path d="M42.7025 20.3135C38.3891 11.2602 33.1676 6.29644 27.0378 5.42223C17.8431 4.11014 13.2454 -0.115137 13.2454 0.758818C18.3536 5.24682 21.8159 7.39371 23.6324 7.1995C24.1145 7.14773 24.4986 6.92209 25.0001 7.03414C27.1313 7.50911 30.0808 10.9987 33.8486 17.503C39.184 21.2224 42.1353 22.1592 42.7025 20.3135Z" fill="#00C344" stroke="#FFFEF9" stroke-width="2" stroke-miterlimit="3" stroke-linecap="square"/>
<path d="M38.7926 18.9465C38.7053 12.6449 37.8483 16.0627 38.7926 12.3451C38.1631 10.0975 38.1631 8.17185 38.7926 6.56818C37.9405 5.65585 37.9405 4.55574 38.7926 3.26786C39.6447 1.97998 41.4923 1.70489 44.3354 2.44259C44.7959 4.54183 45.1037 5.91703 45.2588 6.56818C45.3479 8.77251 44.9955 10.3221 44.2017 11.2169C43.7095 11.7725 45.2372 14.093 45.7935 15.3139C46.5809 17.041 47.5399 18.826 46.183 18.9465C44.4119 19.1041 38.8668 24.2752 38.7926 18.9465Z" fill="#00C344"/>
<path d="M44.3354 2.44259C41.4923 1.70489 39.6447 1.97998 38.7926 3.26786C37.9405 4.55574 37.9405 5.65585 38.7926 6.56818C38.1631 8.17185 38.1631 10.0975 38.7926 12.3451C37.8483 16.0627 38.7053 12.6449 38.7926 18.9465C38.8668 24.2752 44.4119 19.1041 46.183 18.9465C47.5399 18.826 46.5809 17.041 45.7935 15.3139C45.2372 14.093 43.7095 11.7725 44.2017 11.2169C44.9955 10.3221 45.3479 8.77251 45.2588 6.56818M44.3354 2.44259C44.7959 4.54183 45.1037 5.91703 45.2588 6.56818M44.3354 2.44259L45.2588 6.56818" stroke="#FFFEF9" stroke-width="2" stroke-miterlimit="3" stroke-linecap="square"/>
<path d="M40.2051 7.30614C41.4152 7.17091 40.7375 6.953 42.0488 7.22345C42.923 7.40376 43.3547 7.1825 43.3439 6.55968" stroke="#FFFEF9" stroke-width="2" stroke-miterlimit="3" stroke-linecap="square"/>
<path d="M30.8792 39.008V46.7353H54.061V39.008H30.8792Z" fill="#FFFEF9"/>
<mask id="mask6_29_264" style="mask-type:luminance" maskUnits="userSpaceOnUse" x="38" y="31" width="9" height="24">
<path d="M46.3335 31.2808H38.6062V54.4626H46.3335V31.2808Z" fill="white"/>
</mask>
<g mask="url(#mask6_29_264)">
<path d="M30.8789 39.008V46.7353H54.0607V39.008H30.8789Z" fill="#FFFEF9" stroke="#FFFEF9" stroke-width="5.33333" stroke-miterlimit="2" stroke-linecap="square"/>
</g>
<path d="M38.8218 54.526H46.5491V31.3441H38.8218V54.526Z" fill="#FFFEF9"/>
<mask id="mask7_29_264" style="mask-type:luminance" maskUnits="userSpaceOnUse" x="38" y="31" width="9" height="24">
<path d="M46.5483 31.3441H38.821V54.526H46.5483V31.3441Z" fill="white"/>
</mask>
<g mask="url(#mask7_29_264)">
<path d="M38.8218 54.526H46.5491V31.3441H38.8218V54.526Z" fill="#FFFEF9" stroke="#FFFEF9" stroke-width="5.33333" stroke-miterlimit="2" stroke-linecap="square"/>
</g>
<path d="M50.9698 61.8359C52.6769 61.8359 54.0607 60.4521 54.0607 58.745C54.0607 57.0379 52.6769 55.6541 50.9698 55.6541C49.2628 55.6541 47.8789 57.0379 47.8789 58.745C47.8789 60.4521 49.2628 61.8359 50.9698 61.8359Z" fill="#FF0000"/>
<path d="M58.9122 54.0326C60.6193 54.0326 62.0031 52.6488 62.0031 50.9417C62.0031 49.2347 60.6193 47.8508 58.9122 47.8508C57.2051 47.8508 55.8213 49.2347 55.8213 50.9417C55.8213 52.6488 57.2051 54.0326 58.9122 54.0326Z" fill="#FF0000"/>
<path d="M61.6993 43.7212C63.4064 43.7212 64.7902 42.3373 64.7902 40.6303C64.7902 38.9232 63.4064 37.5393 61.6993 37.5393C59.9922 37.5393 58.6084 38.9232 58.6084 40.6303C58.6084 42.3373 59.9922 43.7212 61.6993 43.7212Z" fill="#FF0000"/>
</g>
</g>
<defs>
<clipPath id="clip0_29_264">
<rect width="85" height="85" fill="white"/>
</clipPath>
</defs>
</svg>
