<svg width="85" height="85" viewBox="0 0 85 85" fill="none" xmlns="http://www.w3.org/2000/svg">
<g clip-path="url(#clip0_20_21)">
<mask id="mask0_20_21" style="mask-type:luminance" maskUnits="userSpaceOnUse" x="0" y="0" width="85" height="85">
<path d="M85 0H0V85H85V0Z" fill="white"/>
</mask>
<g mask="url(#mask0_20_21)">
<path d="M46.6882 75.3015H38.9609V81.6085H46.6882V75.3015Z" fill="black"/>
<mask id="mask1_20_21" style="mask-type:luminance" maskUnits="userSpaceOnUse" x="38" y="75" width="9" height="7">
<path d="M46.6882 75.3015H38.9609V81.6085H46.6882V75.3015Z" fill="white"/>
</mask>
<g mask="url(#mask1_20_21)">
<path d="M46.6882 75.3015H38.9609V81.6085H46.6882V75.3015Z" fill="black" stroke="black" stroke-width="5.33333" stroke-miterlimit="2" stroke-linecap="square"/>
</g>
<path d="M2.61719 39.1471V46.8744H8.92419V39.1471H2.61719Z" fill="black"/>
<mask id="mask2_20_21" style="mask-type:luminance" maskUnits="userSpaceOnUse" x="1" y="39" width="9" height="8">
<path d="M9.63511 39.8573H1.90784V46.1643H9.63511V39.8573Z" fill="white"/>
</mask>
<g mask="url(#mask2_20_21)">
<path d="M2.61719 39.1471V46.8744H8.92419V39.1471H2.61719Z" fill="black" stroke="black" stroke-width="5.33333" stroke-miterlimit="2" stroke-linecap="square"/>
</g>
<path d="M75.2544 39.008V46.7353H81.5614V39.008H75.2544Z" fill="black"/>
<mask id="mask3_20_21" style="mask-type:luminance" maskUnits="userSpaceOnUse" x="74" y="39" width="9" height="8">
<path d="M82.2715 39.7182H74.5442V46.0252H82.2715V39.7182Z" fill="white"/>
</mask>
<g mask="url(#mask3_20_21)">
<path d="M75.2543 39.008V46.7353H81.5613V39.008H75.2543Z" fill="black" stroke="black" stroke-width="5.33333" stroke-miterlimit="2" stroke-linecap="square"/>
</g>
<mask id="mask4_20_21" style="mask-type:luminance" maskUnits="userSpaceOnUse" x="7" y="7" width="71" height="71">
<path d="M42.5 77.2727C61.7045 77.2727 77.2727 61.7044 77.2727 42.5C77.2727 23.2956 61.7045 7.72727 42.5 7.72727C23.2956 7.72727 7.72729 23.2956 7.72729 42.5C7.72729 61.7044 23.2956 77.2727 42.5 77.2727Z" fill="white"/>
</mask>
<g mask="url(#mask4_20_21)">
<path d="M42.5 77.2727C61.7045 77.2727 77.2727 61.7044 77.2727 42.5C77.2727 23.2956 61.7045 7.72727 42.5 7.72727C23.2956 7.72727 7.72729 23.2956 7.72729 42.5C7.72729 61.7044 23.2956 77.2727 42.5 77.2727Z" stroke="black" stroke-width="21.3333" stroke-miterlimit="3" stroke-linecap="square"/>
</g>
<mask id="mask5_20_21" style="mask-type:luminance" maskUnits="userSpaceOnUse" x="15" y="15" width="55" height="55">
<path d="M42.3746 69.4492C57.3428 69.4492 69.477 57.315 69.477 42.3467C69.477 27.3784 57.3428 15.2443 42.3746 15.2443C27.4063 15.2443 15.2721 27.3784 15.2721 42.3467C15.2721 57.315 27.4063 69.4492 42.3746 69.4492Z" fill="white"/>
</mask>
<g mask="url(#mask5_20_21)">
<path d="M42.3746 69.4492C57.3428 69.4492 69.477 57.315 69.477 42.3467C69.477 27.3784 57.3428 15.2443 42.3746 15.2443C27.4063 15.2443 15.2721 27.3784 15.2721 42.3467C15.2721 57.315 27.4063 69.4492 42.3746 69.4492Z" stroke="#FF0000" stroke-width="9.33333" stroke-miterlimit="3" stroke-linecap="square"/>
</g>
<path d="M38.4385 20.4216C42.2805 13.2193 47.1999 9.1715 53.1968 8.27823C62.1921 6.93909 64.0243 1.84141 64.0243 2.73468C59.8041 8.9845 56.306 12.2088 53.5298 12.4077C51.0422 12.5854 49.0988 14.5821 47.6996 18.3979C42.0809 21.632 38.9938 22.3066 38.4385 20.4216Z" fill="#00C344" stroke="black" stroke-width="2" stroke-miterlimit="3" stroke-linecap="square"/>
<path d="M43.4071 18.6428C36.0502 17.528 30.6516 19.2095 27.2115 23.6872C22.0512 30.4037 12.9601 29.393 13.8665 29.7701C26.7437 28.8191 33.0242 27.2379 32.7079 25.0263C32.3921 22.8148 35.1129 21.5846 40.8702 21.3358C44.2388 20.7866 45.0844 19.889 43.4071 18.6428Z" fill="#00C344" stroke="black" stroke-width="2" stroke-miterlimit="3" stroke-linecap="square"/>
<path d="M39.5705 18.7695C47.0021 17.4466 52.3336 18.7997 55.5652 22.8287C60.4117 28.8722 66.6685 28.9788 65.742 29.3644C54.8141 28.0482 49.5626 26.3559 49.9876 24.2876C50.4121 22.2193 47.5574 21.1887 41.4235 21.1959C38.4449 20.8023 37.8272 19.9935 39.5705 18.7695Z" fill="#00C344" stroke="black" stroke-width="2" stroke-miterlimit="3" stroke-linecap="square"/>
<path d="M42.7024 20.3135C38.389 11.2602 33.1674 6.29644 27.0376 5.42223C17.843 4.11014 13.2452 -0.115137 13.2452 0.758818C18.3535 5.24682 21.8158 7.39371 23.6322 7.1995C24.1144 7.14773 24.4985 6.92209 25 7.03414C27.1311 7.50911 30.0806 10.9987 33.8485 17.503C39.1839 21.2224 42.1352 22.1592 42.7024 20.3135Z" fill="#00C344" stroke="black" stroke-width="2" stroke-miterlimit="3" stroke-linecap="square"/>
<path d="M38.7924 18.9465C38.705 12.6449 37.8481 16.0627 38.7924 12.3451C38.1629 10.0975 38.1629 8.17185 38.7924 6.56818C37.9403 5.65585 37.9403 4.55574 38.7924 3.26786C39.6444 1.97998 41.492 1.70489 44.3351 2.44259C44.7957 4.54183 45.1035 5.91703 45.2585 6.56818C45.3477 8.77251 44.9953 10.3221 44.2015 11.2169C43.7092 11.7725 45.2369 14.093 45.7933 15.3139C46.5807 17.041 47.5396 18.826 46.1827 18.9465C44.4116 19.1041 38.8665 24.2752 38.7924 18.9465Z" fill="#00C344"/>
<path d="M44.3351 2.44259C41.492 1.70489 39.6444 1.97998 38.7924 3.26786C37.9403 4.55574 37.9403 5.65585 38.7924 6.56818C38.1629 8.17185 38.1629 10.0975 38.7924 12.3451C37.8481 16.0627 38.705 12.6449 38.7924 18.9465C38.8665 24.2752 44.4116 19.1041 46.1827 18.9465C47.5396 18.826 46.5807 17.041 45.7933 15.3139C45.2369 14.093 43.7092 11.7725 44.2015 11.2169C44.9953 10.3221 45.3477 8.77251 45.2585 6.56818M44.3351 2.44259C44.7957 4.54183 45.1035 5.91703 45.2585 6.56818M44.3351 2.44259L45.2585 6.56818" stroke="black" stroke-width="2" stroke-miterlimit="3" stroke-linecap="square"/>
<path d="M40.205 7.30614C41.415 7.17091 40.7374 6.953 42.0487 7.22345C42.9229 7.40376 43.3546 7.1825 43.3438 6.55968" stroke="black" stroke-width="2" stroke-miterlimit="3" stroke-linecap="square"/>
<path d="M30.8789 39.008V46.7353H54.0607V39.008H30.8789Z" fill="black"/>
<mask id="mask6_20_21" style="mask-type:luminance" maskUnits="userSpaceOnUse" x="38" y="31" width="9" height="24">
<path d="M46.3335 31.2808H38.6062V54.4626H46.3335V31.2808Z" fill="white"/>
</mask>
<g mask="url(#mask6_20_21)">
<path d="M30.8789 39.008V46.7353H54.0607V39.008H30.8789Z" fill="black" stroke="black" stroke-width="5.33333" stroke-miterlimit="2" stroke-linecap="square"/>
</g>
<path d="M38.8218 54.526H46.5491V31.3441H38.8218V54.526Z" fill="black"/>
<mask id="mask7_20_21" style="mask-type:luminance" maskUnits="userSpaceOnUse" x="38" y="31" width="9" height="24">
<path d="M46.5483 31.3441H38.821V54.526H46.5483V31.3441Z" fill="white"/>
</mask>
<g mask="url(#mask7_20_21)">
<path d="M38.8218 54.526H46.5491V31.3441H38.8218V54.526Z" fill="black" stroke="black" stroke-width="5.33333" stroke-miterlimit="2" stroke-linecap="square"/>
</g>
<path d="M50.9696 61.8359C52.6766 61.8359 54.0605 60.4521 54.0605 58.745C54.0605 57.0379 52.6766 55.6541 50.9696 55.6541C49.2625 55.6541 47.8787 57.0379 47.8787 58.745C47.8787 60.4521 49.2625 61.8359 50.9696 61.8359Z" fill="#FF0000"/>
<path d="M58.9122 54.0326C60.6193 54.0326 62.0031 52.6488 62.0031 50.9417C62.0031 49.2347 60.6193 47.8508 58.9122 47.8508C57.2051 47.8508 55.8213 49.2347 55.8213 50.9417C55.8213 52.6488 57.2051 54.0326 58.9122 54.0326Z" fill="#FF0000"/>
<path d="M61.6991 43.7212C63.4061 43.7212 64.79 42.3373 64.79 40.6303C64.79 38.9232 63.4061 37.5393 61.6991 37.5393C59.992 37.5393 58.6082 38.9232 58.6082 40.6303C58.6082 42.3373 59.992 43.7212 61.6991 43.7212Z" fill="#FF0000"/>
</g>
</g>
<defs>
<clipPath id="clip0_20_21">
<rect width="85" height="85" fill="white"/>
</clipPath>
</defs>
</svg>
