<svg width="38" height="38" viewBox="0 0 38 38" fill="none" xmlns="http://www.w3.org/2000/svg">
<g clip-path="url(#clip0_65_53)">
<path fill-rule="evenodd" clip-rule="evenodd" d="M20.3017 0.940168C19.8838 -0.313389 18.1137 -0.313389 17.6958 0.940168L15.2457 8.29817C14.7067 9.91523 13.7987 11.3846 12.5934 12.5899C11.3882 13.7951 9.91881 14.7032 8.30173 15.2421L0.943704 17.6923C0.669207 17.7823 0.430179 17.9568 0.260713 18.1908C0.0912471 18.4248 0 18.7063 0 18.9952C0 19.2841 0.0912471 19.5656 0.260713 19.7996C0.430179 20.0336 0.669207 20.208 0.943704 20.2981L8.30173 22.7483C9.91881 23.2872 11.3882 24.1953 12.5934 25.4005C13.7987 26.6058 14.7067 28.0752 15.2457 29.6922L17.6958 37.0502C17.7859 37.3247 17.9604 37.5637 18.1943 37.7332C18.4283 37.9027 18.7098 37.9939 18.9987 37.9939C19.2876 37.9939 19.5692 37.9027 19.8031 37.7332C20.0371 37.5637 20.2116 37.3247 20.3017 37.0502L22.7518 29.696C23.2902 28.0782 24.198 26.6081 25.4033 25.4022C26.6086 24.1962 28.0783 23.2876 29.6957 22.7483L37.0537 20.2981C38.3073 19.8803 38.3073 18.1101 37.0537 17.6923L29.6995 15.2421C28.0818 14.7037 26.6116 13.7959 25.4057 12.5906C24.1997 11.3853 23.2911 9.91564 22.7518 8.29817L20.3017 0.940168Z" fill="#C27600"/>
</g>
<defs>
<clipPath id="clip0_65_53">
<rect width="38" height="38" fill="white"/>
</clipPath>
</defs>
</svg>
